<svg id="visual" viewBox="0 0 400 200" width="400" height="200" xmlns="http://www.w3.org/2000/svg" xmlns:xlink="http://www.w3.org/1999/xlink" version="1.1"><path d="M0 94L3.5 90C7 86 14 78 21 77.7C28 77.3 35 84.7 42 86.3C49 88 56 84 63 82.7C70 81.3 77 82.7 84 83.8C91 85 98 86 105 82.2C112 78.3 119 69.7 126 69C133 68.3 140 75.7 147 74.5C154 73.3 161 63.7 168 58.7C175 53.7 182 53.3 189.2 58.7C196.3 64 203.7 75 210.8 75.2C218 75.3 225 64.7 232 61.3C239 58 246 62 253 64C260 66 267 66 274 68.8C281 71.7 288 77.3 295 81.2C302 85 309 87 316 86.3C323 85.7 330 82.3 337 76.7C344 71 351 63 358 62.2C365 61.3 372 67.7 379 69.5C386 71.3 393 68.7 396.5 67.3L400 66L400 201L396.5 201C393 201 386 201 379 201C372 201 365 201 358 201C351 201 344 201 337 201C330 201 323 201 316 201C309 201 302 201 295 201C288 201 281 201 274 201C267 201 260 201 253 201C246 201 239 201 232 201C225 201 218 201 210.8 201C203.7 201 196.3 201 189.2 201C182 201 175 201 168 201C161 201 154 201 147 201C140 201 133 201 126 201C119 201 112 201 105 201C98 201 91 201 84 201C77 201 70 201 63 201C56 201 49 201 42 201C35 201 28 201 21 201C14 201 7 201 3.5 201L0 201Z" fill="#8ce55a"></path><path d="M0 96L3.5 101.2C7 106.3 14 116.7 21 119.8C28 123 35 119 42 116.5C49 114 56 113 63 112C70 111 77 110 84 109.8C91 109.7 98 110.3 105 113C112 115.7 119 120.3 126 121.5C133 122.7 140 120.3 147 115.3C154 110.3 161 102.7 168 103.5C175 104.3 182 113.7 189.2 118.5C196.3 123.3 203.7 123.7 210.8 121.5C218 119.3 225 114.7 232 113.2C239 111.7 246 113.3 253 110.7C260 108 267 101 274 102.7C281 104.3 288 114.7 295 119.8C302 125 309 125 316 125.3C323 125.7 330 126.3 337 121.7C344 117 351 107 358 106.3C365 105.7 372 114.3 379 119.8C386 125.3 393 127.7 396.5 128.8L400 130L400 201L396.5 201C393 201 386 201 379 201C372 201 365 201 358 201C351 201 344 201 337 201C330 201 323 201 316 201C309 201 302 201 295 201C288 201 281 201 274 201C267 201 260 201 253 201C246 201 239 201 232 201C225 201 218 201 210.8 201C203.7 201 196.3 201 189.2 201C182 201 175 201 168 201C161 201 154 201 147 201C140 201 133 201 126 201C119 201 112 201 105 201C98 201 91 201 84 201C77 201 70 201 63 201C56 201 49 201 42 201C35 201 28 201 21 201C14 201 7 201 3.5 201L0 201Z" fill="#caf3ae"></path><path d="M0 157L3.5 154.8C7 152.7 14 148.3 21 145C28 141.7 35 139.3 42 137.7C49 136 56 135 63 136.3C70 137.7 77 141.3 84 144C91 146.7 98 148.3 105 147.8C112 147.3 119 144.7 126 146.2C133 147.7 140 153.3 147 156.2C154 159 161 159 168 158C175 157 182 155 189.2 153.5C196.3 152 203.7 151 210.8 149C218 147 225 144 232 142C239 140 246 139 253 140.7C260 142.3 267 146.7 274 149.7C281 152.7 288 154.3 295 156.2C302 158 309 160 316 157.7C323 155.3 330 148.7 337 148C344 147.3 351 152.7 358 154.5C365 156.3 372 154.7 379 152.7C386 150.7 393 148.3 396.5 147.2L400 146L400 201L396.5 201C393 201 386 201 379 201C372 201 365 201 358 201C351 201 344 201 337 201C330 201 323 201 316 201C309 201 302 201 295 201C288 201 281 201 274 201C267 201 260 201 253 201C246 201 239 201 232 201C225 201 218 201 210.8 201C203.7 201 196.3 201 189.2 201C182 201 175 201 168 201C161 201 154 201 147 201C140 201 133 201 126 201C119 201 112 201 105 201C98 201 91 201 84 201C77 201 70 201 63 201C56 201 49 201 42 201C35 201 28 201 21 201C14 201 7 201 3.5 201L0 201Z" fill="#ffffff"></path></svg>