<svg id="visual" viewBox="0 0 900 450" width="900" height="450" xmlns="http://www.w3.org/2000/svg" xmlns:xlink="http://www.w3.org/1999/xlink" version="1.1"><path d="M256 0L255.3 10.7C254.7 21.3 253.3 42.7 268.3 64.2C283.3 85.7 314.7 107.3 317.2 128.8C319.7 150.3 293.3 171.7 282.5 193C271.7 214.3 276.3 235.7 282 257C287.7 278.3 294.3 299.7 305.8 321.2C317.3 342.7 333.7 364.3 340.3 385.8C347 407.3 344 428.7 342.5 439.3L341 450L0 450L0 439.3C0 428.7 0 407.3 0 385.8C0 364.3 0 342.7 0 321.2C0 299.7 0 278.3 0 257C0 235.7 0 214.3 0 193C0 171.7 0 150.3 0 128.8C0 107.3 0 85.7 0 64.2C0 42.7 0 21.3 0 10.7L0 0Z" fill="#b0ff82"></path><path d="M214 0L215 10.7C216 21.3 218 42.7 224.5 64.2C231 85.7 242 107.3 249 128.8C256 150.3 259 171.7 247.3 193C235.7 214.3 209.3 235.7 200.5 257C191.7 278.3 200.3 299.7 200 321.2C199.7 342.7 190.3 364.3 205.3 385.8C220.3 407.3 259.7 428.7 279.3 439.3L299 450L0 450L0 439.3C0 428.7 0 407.3 0 385.8C0 364.3 0 342.7 0 321.2C0 299.7 0 278.3 0 257C0 235.7 0 214.3 0 193C0 171.7 0 150.3 0 128.8C0 107.3 0 85.7 0 64.2C0 42.7 0 21.3 0 10.7L0 0Z" fill="#a3ee6e"></path><path d="M211 0L204.8 10.7C198.7 21.3 186.3 42.7 186.5 64.2C186.7 85.7 199.3 107.3 209.8 128.8C220.3 150.3 228.7 171.7 228 193C227.3 214.3 217.7 235.7 211.3 257C205 278.3 202 299.7 203.3 321.2C204.7 342.7 210.3 364.3 206.8 385.8C203.3 407.3 190.7 428.7 184.3 439.3L178 450L0 450L0 439.3C0 428.7 0 407.3 0 385.8C0 364.3 0 342.7 0 321.2C0 299.7 0 278.3 0 257C0 235.7 0 214.3 0 193C0 171.7 0 150.3 0 128.8C0 107.3 0 85.7 0 64.2C0 42.7 0 21.3 0 10.7L0 0Z" fill="#96de59"></path><path d="M104 0L111.5 10.7C119 21.3 134 42.7 142.7 64.2C151.3 85.7 153.7 107.3 150.7 128.8C147.7 150.3 139.3 171.7 139.7 193C140 214.3 149 235.7 147.3 257C145.7 278.3 133.3 299.7 125.3 321.2C117.3 342.7 113.7 364.3 114.8 385.8C116 407.3 122 428.7 125 439.3L128 450L0 450L0 439.3C0 428.7 0 407.3 0 385.8C0 364.3 0 342.7 0 321.2C0 299.7 0 278.3 0 257C0 235.7 0 214.3 0 193C0 171.7 0 150.3 0 128.8C0 107.3 0 85.7 0 64.2C0 42.7 0 21.3 0 10.7L0 0Z" fill="#89ce44"></path><path d="M69 0L69.7 10.7C70.3 21.3 71.7 42.7 76.5 64.2C81.3 85.7 89.7 107.3 89.5 128.8C89.3 150.3 80.7 171.7 80.5 193C80.3 214.3 88.7 235.7 86.5 257C84.3 278.3 71.7 299.7 66.2 321.2C60.7 342.7 62.3 364.3 59.8 385.8C57.3 407.3 50.7 428.7 47.3 439.3L44 450L0 450L0 439.3C0 428.7 0 407.3 0 385.8C0 364.3 0 342.7 0 321.2C0 299.7 0 278.3 0 257C0 235.7 0 214.3 0 193C0 171.7 0 150.3 0 128.8C0 107.3 0 85.7 0 64.2C0 42.7 0 21.3 0 10.7L0 0Z" fill="#7cbe2c"></path></svg>