<svg id="visual" viewBox="0 0 400 100" width="400" height="100" xmlns="http://www.w3.org/2000/svg" xmlns:xlink="http://www.w3.org/1999/xlink" version="1.1"><path d="M0 46L3.5 44C7 42 14 38 21 37.8C28 37.7 35 41.3 42 42.2C49 43 56 41 63 40.3C70 39.7 77 40.3 84 41C91 41.7 98 42.3 105 40.5C112 38.7 119 34.3 126 34C133 33.7 140 37.3 147 36.7C154 36 161 31 168 28.5C175 26 182 26 189.2 28.8C196.3 31.7 203.7 37.3 210.8 37.3C218 37.3 225 31.7 232 30C239 28.3 246 30.7 253 31.7C260 32.7 267 32.3 274 33.7C281 35 288 38 295 40C302 42 309 43 316 42.7C323 42.3 330 40.7 337 37.8C344 35 351 31 358 30.7C365 30.3 372 33.7 379 34.7C386 35.7 393 34.3 396.5 33.7L400 33L400 101L396.5 101C393 101 386 101 379 101C372 101 365 101 358 101C351 101 344 101 337 101C330 101 323 101 316 101C309 101 302 101 295 101C288 101 281 101 274 101C267 101 260 101 253 101C246 101 239 101 232 101C225 101 218 101 210.8 101C203.7 101 196.3 101 189.2 101C182 101 175 101 168 101C161 101 154 101 147 101C140 101 133 101 126 101C119 101 112 101 105 101C98 101 91 101 84 101C77 101 70 101 63 101C56 101 49 101 42 101C35 101 28 101 21 101C14 101 7 101 3.5 101L0 101Z" fill="#8ce55a"></path><path d="M0 48L3.5 50.5C7 53 14 58 21 59.5C28 61 35 59 42 57.8C49 56.7 56 56.3 63 55.8C70 55.3 77 54.7 84 54.5C91 54.3 98 54.7 105 56C112 57.3 119 59.7 126 60.3C133 61 140 60 147 57.5C154 55 161 51 168 51.3C175 51.7 182 56.3 189.2 58.8C196.3 61.3 203.7 61.7 210.8 60.7C218 59.7 225 57.3 232 56.5C239 55.7 246 56.3 253 55C260 53.7 267 50.3 274 51.2C281 52 288 57 295 59.5C302 62 309 62 316 62.2C323 62.3 330 62.7 337 60.3C344 58 351 53 358 52.7C365 52.3 372 56.7 379 59.3C386 62 393 63 396.5 63.5L400 64L400 101L396.5 101C393 101 386 101 379 101C372 101 365 101 358 101C351 101 344 101 337 101C330 101 323 101 316 101C309 101 302 101 295 101C288 101 281 101 274 101C267 101 260 101 253 101C246 101 239 101 232 101C225 101 218 101 210.8 101C203.7 101 196.3 101 189.2 101C182 101 175 101 168 101C161 101 154 101 147 101C140 101 133 101 126 101C119 101 112 101 105 101C98 101 91 101 84 101C77 101 70 101 63 101C56 101 49 101 42 101C35 101 28 101 21 101C14 101 7 101 3.5 101L0 101Z" fill="#caf3ae"></path><path d="M0 78L3.5 77C7 76 14 74 21 72.3C28 70.7 35 69.3 42 68.5C49 67.7 56 67.3 63 68C70 68.7 77 70.3 84 71.7C91 73 98 74 105 73.8C112 73.7 119 72.3 126 73C133 73.7 140 76.3 147 77.7C154 79 161 79 168 78.5C175 78 182 77 189.2 76.3C196.3 75.7 203.7 75.3 210.8 74.3C218 73.3 225 71.7 232 70.5C239 69.3 246 68.7 253 69.5C260 70.3 267 72.7 274 74.2C281 75.7 288 76.3 295 77.2C302 78 309 79 316 77.8C323 76.7 330 73.3 337 73C344 72.7 351 75.3 358 76.3C365 77.3 372 76.7 379 75.8C386 75 393 74 396.5 73.5L400 73L400 101L396.5 101C393 101 386 101 379 101C372 101 365 101 358 101C351 101 344 101 337 101C330 101 323 101 316 101C309 101 302 101 295 101C288 101 281 101 274 101C267 101 260 101 253 101C246 101 239 101 232 101C225 101 218 101 210.8 101C203.7 101 196.3 101 189.2 101C182 101 175 101 168 101C161 101 154 101 147 101C140 101 133 101 126 101C119 101 112 101 105 101C98 101 91 101 84 101C77 101 70 101 63 101C56 101 49 101 42 101C35 101 28 101 21 101C14 101 7 101 3.5 101L0 101Z" fill="#ffffff"></path></svg>